<svg xmlns="http://www.w3.org/2000/svg" width="256" height="256" viewBox="0 0 100 100"><rect width="100" height="100" rx="20" fill="#7ed321"></rect><path d="M67.93 60.91L67.93 60.91Q67.93 67.37 63.18 71.01Q58.43 74.64 49.44 74.64L49.44 74.64Q45.61 74.64 42.37 73.99Q39.14 73.33 36.87 72.27Q34.60 71.21 33.33 69.85Q32.07 68.48 32.07 67.07L32.07 67.07Q32.07 65.86 32.73 64.75Q33.39 63.64 34.70 62.83L34.70 62.83Q37.43 64.85 41.06 66.41Q44.70 67.98 49.34 67.98L49.34 67.98Q59.85 67.98 59.85 60.91L59.85 60.91Q59.85 55.15 52.88 53.43L52.88 53.43L44.50 51.21Q38.33 49.60 35.51 46.52Q32.68 43.44 32.68 38.59L32.68 38.59Q32.68 35.96 33.74 33.54Q34.80 31.11 37.02 29.30Q39.24 27.48 42.53 26.42Q45.81 25.36 50.25 25.36L50.25 25.36Q57.32 25.36 61.67 27.43Q66.01 29.50 66.01 32.22L66.01 32.22Q66.01 33.54 65.35 34.55Q64.70 35.56 63.58 36.06L63.58 36.06Q61.77 34.85 58.43 33.44Q55.10 32.02 50.56 32.02L50.56 32.02Q46.01 32.02 43.33 33.74Q40.66 35.46 40.66 38.59L40.66 38.59Q40.66 40.91 42.17 42.53Q43.69 44.14 47.22 44.95L47.22 44.95L54.19 46.67Q61.06 48.38 64.49 51.77Q67.93 55.15 67.93 60.91Z" fill="#fff"></path></svg>